<?xml version="1.0" encoding="UTF-8" standalone="no"?>
<svg
   xmlns:dc="http://purl.org/dc/elements/1.1/"
   xmlns:cc="http://creativecommons.org/ns#"
   xmlns:rdf="http://www.w3.org/1999/02/22-rdf-syntax-ns#"
   xmlns:svg="http://www.w3.org/2000/svg"
   xmlns="http://www.w3.org/2000/svg"
   xmlns:sodipodi="http://sodipodi.sourceforge.net/DTD/sodipodi-0.dtd"
   xmlns:inkscape="http://www.inkscape.org/namespaces/inkscape"
   width="1000.4883"
   height="600.90527"
   viewBox="0 0 264.71252 158.98952"
   version="1.1"
   id="svg8"
   inkscape:version="1.0.2-2 (e86c870879, 2021-01-15)"
   sodipodi:docname="1mob.svg">
  <defs
     id="defs2" />
  <sodipodi:namedview
     id="base"
     pagecolor="#ffffff"
     bordercolor="#666666"
     borderopacity="1.0"
     inkscape:pageopacity="0.0"
     inkscape:pageshadow="2"
     inkscape:zoom="0.97970422"
     inkscape:cx="398.9528"
     inkscape:cy="619.59681"
     inkscape:document-units="mm"
     inkscape:current-layer="layer1"
     inkscape:document-rotation="0"
     showgrid="false"
     units="px"
     inkscape:window-width="1920"
     inkscape:window-height="1011"
     inkscape:window-x="-9"
     inkscape:window-y="-9"
     inkscape:window-maximized="1" />
  <metadata
     id="metadata5">
    <rdf:RDF>
      <cc:Work
         rdf:about="">
        <dc:format>image/svg+xml</dc:format>
        <dc:type
           rdf:resource="http://purl.org/dc/dcmitype/StillImage" />
        <dc:title></dc:title>
      </cc:Work>
    </rdf:RDF>
  </metadata>
  <g
     inkscape:label="Layer 1"
     inkscape:groupmode="layer"
     id="layer1">
    <path
       style="fill:#000000;fill-opacity:1;stroke:#000000;stroke-width:0.0255345px;stroke-linecap:butt;stroke-linejoin:miter;stroke-opacity:1"
       d="m -0.4461527,110.53933 0.88462704,48.35966 H 264.64733 v -52.19306 c 0,0 -10.3264,-8.383459 -16.51305,-8.477677 -5.55009,-0.08455 -9.49162,6.949407 -15.03867,7.150747 -6.43001,0.23338 -11.55602,-7.193419 -17.98745,-7.003301 -5.94594,0.175753 -10.26994,7.383921 -16.21817,7.445611 -6.10768,0.0633 -10.70945,-7.639077 -16.80793,-7.298178 -4.18739,0.234075 -6.74957,5.740308 -10.91041,6.266108 -7.58848,0.95898 -14.48058,-6.576533 -22.1157,-6.118676 -4.45489,0.267162 -7.93525,4.741446 -12.38479,5.086626 -7.05348,0.54716 -13.58564,-5.457433 -20.64131,-4.93918 -4.54173,0.333598 -8.1374,4.76046 -12.67967,5.08661 -6.961199,0.49983 -13.399326,-5.606806 -20.346439,-4.939177 -4.520393,0.434421 -7.859591,5.295237 -12.384791,5.676367 -7.097859,0.59781 -13.556175,-6.262264 -20.641315,-5.528921 -5.039229,0.521575 -8.509859,6.511521 -13.564293,6.855851 -6.845985,0.46641 -12.650648,-7.540903 -19.461815,-6.708418 -6.860254,0.838488 -17.3976797,11.279008 -17.3976797,11.279008 z"
       id="path10"
       sodipodi:nodetypes="ccccaaaaaaaaaaaaaaac" />
  </g>
</svg>